<svg xmlns="http://www.w3.org/2000/svg" xmlns:oryx="http://oryx-editor.org" id="_23F76EAD-07A6-4F00-ABA9-2FCD439AD622" width="531.359375" height="195.796875" xmlns:xlink="http://www.w3.org/1999/xlink" xmlns:svg="http://www.w3.org/2000/svg"><defs><marker id="_0533388E-D27F-4CC4-8AC7-E2D60C1D6B5Cstart" refX="1" refY="5" markerUnits="userSpaceOnUse" markerWidth="17" markerHeight="11" orient="auto" fill="#000000" stroke="#000000"> 	  		<path id="_0533388E-D27F-4CC4-8AC7-E2D60C1D6B5Cconditional" d="M 0 5 L 8 0 L 16 5 L 8 10 L 0 5" fill="white" stroke="#000000" stroke-width="1" display="none"/> 			<path id="_0533388E-D27F-4CC4-8AC7-E2D60C1D6B5Cdefault" d="M 5 0 L 11 10" fill="white" stroke="#000000" stroke-width="1" display="none"/> 	  	</marker><marker id="_0533388E-D27F-4CC4-8AC7-E2D60C1D6B5Cend" refX="15" refY="6" markerUnits="userSpaceOnUse" markerWidth="15" markerHeight="12" orient="auto" fill="#000000" stroke="#000000"> 	  		<path id="_0533388E-D27F-4CC4-8AC7-E2D60C1D6B5Cframe2" d="M 0 1 L 15 6 L 0 11z" fill="#000000" stroke="#000000" stroke-linejoin="round" stroke-width="2"/> 	  	</marker><marker id="_F7FF9C99-5F26-4F6C-A67B-F9BC8A15869Fstart" refX="1" refY="5" markerUnits="userSpaceOnUse" markerWidth="17" markerHeight="11" orient="auto" fill="#000000" stroke="#000000"> 	  		<path id="_F7FF9C99-5F26-4F6C-A67B-F9BC8A15869Fconditional" d="M 0 5 L 8 0 L 16 5 L 8 10 L 0 5" fill="white" stroke="#000000" stroke-width="1" display="none"/> 			<path id="_F7FF9C99-5F26-4F6C-A67B-F9BC8A15869Fdefault" d="M 5 0 L 11 10" fill="white" stroke="#000000" stroke-width="1" display="none"/> 	  	</marker><marker id="_F7FF9C99-5F26-4F6C-A67B-F9BC8A15869Fend" refX="15" refY="6" markerUnits="userSpaceOnUse" markerWidth="15" markerHeight="12" orient="auto" fill="#000000" stroke="#000000"> 	  		<path id="_F7FF9C99-5F26-4F6C-A67B-F9BC8A15869Fframe2" d="M 0 1 L 15 6 L 0 11z" fill="#000000" stroke="#000000" stroke-linejoin="round" stroke-width="2"/> 	  	</marker></defs><g stroke="none" font-family="Verdana, sans-serif" font-size-adjust="none" font-style="normal" font-variant="normal" font-weight="normal" line-heigth="normal" font-size="12"><g class="stencils" transform="translate(15, 15.796875)"><g class="me"/><g class="children"><g id="_B10E267D-E0FB-4AE4-9BE9-E1C12584CD02" bpmn2nodeid="25403b55-1bed-4f1e-baba-7e88872ef148"><g class="stencils" transform="translate(34, 103)"><g class="me"><g pointer-events="fill" id="_B10E267D-E0FB-4AE4-9BE9-E1C12584CD02">        <defs id="_B10E267D-E0FB-4AE4-9BE9-E1C12584CD02__B10E267D-E0FB-4AE4-9BE9-E1C12584CD02_5"> 		<radialGradient id="_B10E267D-E0FB-4AE4-9BE9-E1C12584CD02background" cx="10%" cy="10%" r="100%" fx="10%" fy="10%"> 			<stop offset="0%" stop-color="#ffffff" stop-opacity="1" id="_B10E267D-E0FB-4AE4-9BE9-E1C12584CD02__B10E267D-E0FB-4AE4-9BE9-E1C12584CD02_6"/> 			<stop id="_B10E267D-E0FB-4AE4-9BE9-E1C12584CD02fill_el" offset="100%" stop-color="#9acd32" stop-opacity="1"/> 		</radialGradient> 	</defs> 	     <circle id="_B10E267D-E0FB-4AE4-9BE9-E1C12584CD02bg_frame" cx="24" cy="24" r="15" stroke="#000000" fill="url(#_B10E267D-E0FB-4AE4-9BE9-E1C12584CD02background) white" stroke-width="1" style="stroke-dasharray: 5.5, 3"/>      <circle id="_B10E267D-E0FB-4AE4-9BE9-E1C12584CD02frame" cx="24" cy="24" r="15" stroke="#000000" fill="none" stroke-width="1" display="none"/>  	<text font-size="11" id="_B10E267D-E0FB-4AE4-9BE9-E1C12584CD02text_name" x="15" y="32" oryx:align="top center" stroke="black" stroke-width="0pt" letter-spacing="-0.01px" fill="#000000" text-anchor="middle" transform="rotate(0 15 32)" visibility="inherit" oryx:fontSize="11"><tspan x="15" y="32" dy="11">Start</tspan></text>   </g></g><g class="children" style="overflow:hidden"/><g class="edge"/></g><g class="controls"><g class="dockers"/><g class="magnets" transform="translate(34, 103)"><g pointer-events="all" display="none" transform="translate(7, 7)"><circle cx="8" cy="8" r="4" stroke="none" fill="red" fill-opacity="0.3"/></g></g></g></g><g id="_7F01A5B2-F74B-4C08-9D59-44B0F786E118" bpmn2nodeid="7b4e39c8-84bb-4bb9-9f96-1bcbae360a40"><g class="stencils" transform="translate(117, 103)"><g class="me"><g pointer-events="fill" oryx:minimumSize="50 40" id="_7F01A5B2-F74B-4C08-9D59-44B0F786E118">   	<defs id="_7F01A5B2-F74B-4C08-9D59-44B0F786E118__7F01A5B2-F74B-4C08-9D59-44B0F786E118_17"> 		<radialGradient id="_7F01A5B2-F74B-4C08-9D59-44B0F786E118background" cx="10%" cy="10%" r="100%" fx="10%" fy="10%"> 			<stop offset="0%" stop-color="#ffffff" stop-opacity="1" id="_7F01A5B2-F74B-4C08-9D59-44B0F786E118__7F01A5B2-F74B-4C08-9D59-44B0F786E118_18"/> 			<stop id="_7F01A5B2-F74B-4C08-9D59-44B0F786E118fill_el" offset="100%" stop-color="#fafad2" stop-opacity="1"/> 		</radialGradient> 		<radialGradient id="_7F01A5B2-F74B-4C08-9D59-44B0F786E118borderbackground" cx="10%" cy="10%" r="100%" fx="10%" fy="10%"> 			<stop offset="0%" stop-color="#ffffff" stop-opacity="1" id="_7F01A5B2-F74B-4C08-9D59-44B0F786E118__7F01A5B2-F74B-4C08-9D59-44B0F786E118_19"/> 			<stop id="_7F01A5B2-F74B-4C08-9D59-44B0F786E118fill_border" offset="100%" stop-color="#000000" stop-opacity="1" stroke="#000000"/> 		</radialGradient> 	</defs> 	 	<rect id="_7F01A5B2-F74B-4C08-9D59-44B0F786E118text_frame" oryx:anchors="bottom top right left" x="1" y="1" width="74" height="47" rx="10" ry="10" stroke="none" stroke-width="0" fill="none"/> 	<rect id="_7F01A5B2-F74B-4C08-9D59-44B0F786E118bg_frame" oryx:resize="vertical horizontal" x="0" y="0" width="80" height="48" rx="10" ry="10" stroke="#000000" stroke-width="1" fill="url(#_7F01A5B2-F74B-4C08-9D59-44B0F786E118background) #ffffcc"/> 		<text font-size="12" id="_7F01A5B2-F74B-4C08-9D59-44B0F786E118text_name" x="40" y="24" oryx:align="middle center" oryx:fittoelem="text_frame" stroke="black" text-anchor="middle" stroke-width="0pt" letter-spacing="-0.01px" fill="#000000" transform="rotate(0 40 24)" visibility="inherit" oryx:fontSize="12"><tspan x="40" y="24" dy="5">Script</tspan></text>     <g id="_7F01A5B2-F74B-4C08-9D59-44B0F786E118manualTask" transform="scale(0.7,0.7) translate(8,8)" display="none">     	<path oryx:anchors="top left" id="_7F01A5B2-F74B-4C08-9D59-44B0F786E118frame" style="opacity:1;fill:none;fill-opacity:1;stroke-width:1" d="M0.5,3.751l4.083-3.25c0,0,11.166,0.083,12.083,0.083s-2.417,2.917-1.5,2.917     s11.667,0,12.584,0c1.166,1.708-0.168,3.167-0.834,3.667s0.875,1.917-1,4.417c-0.75,0.25,0.75,1.875-1.333,3.333     c-1.167,0.583,0.583,1.542-1.25,2.833c-1.167,0-20.833,0.083-20.833,0.083l-2-1.333V3.751z" stroke="#000000"/> 		<path id="_7F01A5B2-F74B-4C08-9D59-44B0F786E118frame2" oryx:anchors="top left" style="opacity:1;fill:none;stroke-width:2" d="M 13.5 7 L 27 7" stroke="#000000"/> 		<path id="_7F01A5B2-F74B-4C08-9D59-44B0F786E118frame3" oryx:anchors="top left" style="opacity:1;fill:none;stroke-width:2" d="M 13.5 11 L 26 11" stroke="#000000"/> 		<path id="_7F01A5B2-F74B-4C08-9D59-44B0F786E118frame4" oryx:anchors="top left" style="opacity:1;fill:none;stroke-width:1.5" d="M 14 14.5 L 25 14.5" stroke="#000000"/> 		<path id="_7F01A5B2-F74B-4C08-9D59-44B0F786E118frame5" oryx:anchors="top left" style="opacity:1;fill:none;stroke-width:1.5" d="M 8.2 3.1 L 15 3.1" stroke="#000000"/> 	</g> 	 	<g id="_7F01A5B2-F74B-4C08-9D59-44B0F786E118businessRuleTask" transform="scale(0.7,0.7) translate(8,8)" display="none"> 		<rect id="_7F01A5B2-F74B-4C08-9D59-44B0F786E118frame6" oryx:anchors="top left" x="0" y="0" width="22" height="4" style="opacity:1;fill:#B3B1B3;fill-opacity:1;" stroke="#000000"/> 		<rect id="_7F01A5B2-F74B-4C08-9D59-44B0F786E118frame7" oryx:anchors="top left" x="0" y="4" style="opacity:1;fill:none;" width="22" height="12" stroke="#000000"/> 		<path id="_7F01A5B2-F74B-4C08-9D59-44B0F786E118frame8" oryx:anchors="top left" style="opacity:1;fill:none;" d="M 0 10 L 22 10" stroke="#000000"/> 		<path id="_7F01A5B2-F74B-4C08-9D59-44B0F786E118frame9" oryx:anchors="top left" style="opacity:1; fill:none;" d="M 7 4 L 7 16" stroke="#000000"/> 	</g> 	 	<g id="_7F01A5B2-F74B-4C08-9D59-44B0F786E118scriptTask" transform="scale(0.7,0.7) translate(8,8)" display="inherit"> 		<path oryx:anchors="top left" id="_7F01A5B2-F74B-4C08-9D59-44B0F786E118frame10" style="opacity:1;fill:none;" stroke="#000000" d="M6.402,0.5h14.5c0,0-5.833,2.833-5.833,5.583s4.417,6,4.417,9.167    s-4.167,5.083-4.167,5.083H0.235c0,0,5-2.667,5-5s-4.583-6.75-4.583-9.25S6.402,0.5,6.402,0.5z"/> 		<path oryx:anchors="top left" id="_7F01A5B2-F74B-4C08-9D59-44B0F786E118frame11" style="opacity:1;fill:none;stroke-width:1.5" d="M 3.5 4.5 L 13.5 4.5" stroke="#000000"/> 		<path oryx:anchors="top left" id="_7F01A5B2-F74B-4C08-9D59-44B0F786E118frame12" style="opacity:1;fill:none;stroke-width:1.5" d="M 3.8 8.5 L 13.8 8.5" stroke="#000000"/> 		<path oryx:anchors="top left" id="_7F01A5B2-F74B-4C08-9D59-44B0F786E118frame13" style="opacity:1;fill:none;stroke-width:1.5" d="M 6.3 12.5 L 16.3 12.5" stroke="#000000"/> 		<path oryx:anchors="top left" id="_7F01A5B2-F74B-4C08-9D59-44B0F786E118frame14" style="opacity:1;fill:none;stroke-width:1.5" d="M 6.5 16.5 L 16.5 16.5" stroke="#000000"/> 	</g> 	 	<g id="_7F01A5B2-F74B-4C08-9D59-44B0F786E118userTask" transform="scale(0.7,0.7) translate(8,8)" display="none"> 		<path id="_7F01A5B2-F74B-4C08-9D59-44B0F786E118frame15" oryx:anchors="top left" style="opacity:1;fill:#F4F6F7" stroke="#000000" d="M0.585,24.167h24.083v-7.833c0,0-2.333-3.917-7.083-5.167h-9.25    c-4.417,1.333-7.833,5.75-7.833,5.75L0.585,24.167z"/> 		<path id="_7F01A5B2-F74B-4C08-9D59-44B0F786E118frame16" oryx:anchors="top left" style="opacity:1;fill:none" d="M 6 20 L 6 24" stroke="#000000"/> 		<path id="_7F01A5B2-F74B-4C08-9D59-44B0F786E118frame17" oryx:anchors="top left" style="opacity:1;fill:none" d="M 20 20 L 20 24" stroke="#000000"/> 		<circle id="_7F01A5B2-F74B-4C08-9D59-44B0F786E118frame18" oryx:anchors="top left" fill="black" cx="13.002" cy="5.916" r="5.417" stroke="#000000"/> 		<path id="_7F01A5B2-F74B-4C08-9D59-44B0F786E118frame19" oryx:anchors="top left" style="opacity:1;fill:#F0EFF0;" stroke="#000000" d="M8.043,7.083c0,0,2.814-2.426,5.376-1.807s4.624-0.693,4.624-0.693    c0.25,1.688,0.042,3.75-1.458,5.584c0,0,1.083,0.75,1.083,1.5s0.125,1.875-1,3s-5.5,1.25-6.75,0S8.668,12.834,8.668,12    s0.583-1.25,1.25-1.917C8.835,9.5,7.419,7.708,8.043,7.083z"/> 	</g> 	 	<g id="_7F01A5B2-F74B-4C08-9D59-44B0F786E118serviceTask" transform="scale(0.7,0.7) translate(8,8)" display="none"> 		<polygon oryx:anchors="top left" id="_7F01A5B2-F74B-4C08-9D59-44B0F786E118frame20" style="opacity:1;fill:#ffffff" stroke="#000000" points="15.392,5.064 17.954,2.502 20.347,4.895 17.786,7.455     18.729,9.732 22.353,9.732 22.353,13.115 18.731,13.115 17.788,15.392 20.351,17.955 17.958,20.347 15.397,17.786 13.12,18.729     13.12,22.353 9.737,22.353 9.737,18.731 7.46,17.788 4.897,20.35 2.506,17.958 5.066,15.397 4.124,13.12 0.5,13.12 0.5,9.737     4.121,9.737 5.065,7.461 2.503,4.898 4.895,2.506 7.455,5.066 9.732,4.125 9.732,0.5 13.116,0.5 13.116,4.121 "/> 		<circle oryx:anchors="top left" id="_7F01A5B2-F74B-4C08-9D59-44B0F786E118frame21" style="opacity:1;fill:none" stroke="#000000" cx="11.427" cy="11.426" r="3.714"/> 		<polygon oryx:anchors="top left" id="_7F01A5B2-F74B-4C08-9D59-44B0F786E118frame22" style="opacity:1;fill:#ffffff" stroke="#000000" points="21.392,11.064 23.954,8.502 26.347,10.895 23.786,13.455     24.729,15.732 28.353,15.732 28.353,19.115 24.731,19.115 23.788,21.392 26.351,23.955 23.958,26.347 21.397,23.786 19.12,24.729     19.12,28.353 15.737,28.353 15.737,24.731 13.46,23.788 10.897,26.35 8.506,23.958 11.066,21.397 10.124,19.12 6.5,19.12     6.5,15.737 10.121,15.737 11.065,13.461 8.503,10.898 10.895,8.506 13.455,11.066 15.732,10.125 15.732,6.5 19.116,6.5     19.116,10.121 "/> 		<circle oryx:anchors="top left" id="_7F01A5B2-F74B-4C08-9D59-44B0F786E118frame23" style="opacity:1;fill:none;" stroke="#000000" cx="17.427" cy="17.426" r="3.714"/> 	</g> 	 	<g id="_7F01A5B2-F74B-4C08-9D59-44B0F786E118sendTask" display="none"> 		<path id="_7F01A5B2-F74B-4C08-9D59-44B0F786E118stframe24" oryx:anchors="left top" stroke="#FFFFFF" fill="black" stroke-width="1" d="M8,11 L8,21 L24,21 L24,11 L16,17z"/> 		<path id="_7F01A5B2-F74B-4C08-9D59-44B0F786E118stframe25" oryx:anchors="left top" stroke="#FFFFFF" fill="black" stroke-width="1" d="M7,10 L16,17 L25 10z"/> 	</g> 	 	<g id="_7F01A5B2-F74B-4C08-9D59-44B0F786E118receiveTask" display="none"> 		<path id="_7F01A5B2-F74B-4C08-9D59-44B0F786E118frame26" oryx:anchors="left top" stroke="#000000" fill="none" stroke-width="1" d="M8,11 L8,21 L24,21 L24,11z M8,11 L16,17 L24,11"/> 	</g> 	 	<g id="_7F01A5B2-F74B-4C08-9D59-44B0F786E118none" display="inherit"/>  	<g id="_7F01A5B2-F74B-4C08-9D59-44B0F786E118sequential" display="none">         <path oryx:anchors="bottom" fill="none" stroke="#000000" stroke-width="2" d=" M35.800000000000004 44  h10  M35.800000000000004 40  h10  M35.800000000000004 36  h10 " id="_7F01A5B2-F74B-4C08-9D59-44B0F786E118__7F01A5B2-F74B-4C08-9D59-44B0F786E118_20"/>     </g>   </g></g><g class="children" style="overflow:hidden"/><g class="edge"/></g><g class="controls"><g class="dockers"/><g class="magnets" transform="translate(117, 103)"><g pointer-events="all" display="none" transform="translate(-7, 4)"><circle cx="8" cy="8" r="4" stroke="none" fill="red" fill-opacity="0.3"/></g><g pointer-events="all" display="none" transform="translate(-7, 16)"><circle cx="8" cy="8" r="4" stroke="none" fill="red" fill-opacity="0.3"/></g><g pointer-events="all" display="none" transform="translate(-7, 28)"><circle cx="8" cy="8" r="4" stroke="none" fill="red" fill-opacity="0.3"/></g><g pointer-events="all" display="none" transform="translate(12, 39)"><circle cx="8" cy="8" r="4" stroke="none" fill="red" fill-opacity="0.3"/></g><g pointer-events="all" display="none" transform="translate(32, 39)"><circle cx="8" cy="8" r="4" stroke="none" fill="red" fill-opacity="0.3"/></g><g pointer-events="all" display="none" transform="translate(52, 39)"><circle cx="8" cy="8" r="4" stroke="none" fill="red" fill-opacity="0.3"/></g><g pointer-events="all" display="none" transform="translate(71, 4)"><circle cx="8" cy="8" r="4" stroke="none" fill="red" fill-opacity="0.3"/></g><g pointer-events="all" display="none" transform="translate(71, 16)"><circle cx="8" cy="8" r="4" stroke="none" fill="red" fill-opacity="0.3"/></g><g pointer-events="all" display="none" transform="translate(71, 28)"><circle cx="8" cy="8" r="4" stroke="none" fill="red" fill-opacity="0.3"/></g><g pointer-events="all" display="none" transform="translate(12, -7)"><circle cx="8" cy="8" r="4" stroke="none" fill="red" fill-opacity="0.3"/></g><g pointer-events="all" display="none" transform="translate(32, -7)"><circle cx="8" cy="8" r="4" stroke="none" fill="red" fill-opacity="0.3"/></g><g pointer-events="all" display="none" transform="translate(52, -7)"><circle cx="8" cy="8" r="4" stroke="none" fill="red" fill-opacity="0.3"/></g><g pointer-events="all" display="none" transform="translate(32, 16)"><circle cx="8" cy="8" r="4" stroke="none" fill="red" fill-opacity="0.3"/></g></g></g></g><g id="_F125DE49-5089-4FD3-B6C2-133A7D02BDA9" bpmn2nodeid="214dffd4-2c60-4483-9a34-bc0a28f2e9cf"><g class="stencils" transform="translate(228, 104)"><g class="me"><g pointer-events="fill" id="_F125DE49-5089-4FD3-B6C2-133A7D02BDA9">       <defs id="_F125DE49-5089-4FD3-B6C2-133A7D02BDA9__F125DE49-5089-4FD3-B6C2-133A7D02BDA9_5"> 		<radialGradient id="_F125DE49-5089-4FD3-B6C2-133A7D02BDA9background" cx="10%" cy="10%" r="100%" fx="10%" fy="10%"> 			<stop offset="0%" stop-color="#ffffff" stop-opacity="1" id="_F125DE49-5089-4FD3-B6C2-133A7D02BDA9__F125DE49-5089-4FD3-B6C2-133A7D02BDA9_6"/> 			<stop id="_F125DE49-5089-4FD3-B6C2-133A7D02BDA9fill_el" offset="100%" stop-color="#ff6347" stop-opacity="1"/> 		</radialGradient> 		<radialGradient id="_F125DE49-5089-4FD3-B6C2-133A7D02BDA9borderbackground" cx="10%" cy="10%" r="100%" fx="10%" fy="10%"> 			<stop offset="0%" stop-color="#ffffff" stop-opacity="1" id="_F125DE49-5089-4FD3-B6C2-133A7D02BDA9__F125DE49-5089-4FD3-B6C2-133A7D02BDA9_7"/> 			<stop id="_F125DE49-5089-4FD3-B6C2-133A7D02BDA9fill_border" offset="100%" stop-color="#000000" stop-opacity="1" stroke="#000000"/> 		</radialGradient> 	</defs> 	     <circle id="_F125DE49-5089-4FD3-B6C2-133A7D02BDA9bg_frame" cx="24" cy="24" r="14" stroke="#000000" fill="url(#_F125DE49-5089-4FD3-B6C2-133A7D02BDA9background) white" stroke-width="3"/>          <circle id="_F125DE49-5089-4FD3-B6C2-133A7D02BDA9frame" cx="24" cy="24" r="9" stroke="#000000" fill="url(#_F125DE49-5089-4FD3-B6C2-133A7D02BDA9borderbackground)" stroke-width="1"/> 	<text font-size="11" id="_F125DE49-5089-4FD3-B6C2-133A7D02BDA9text_name" x="14" y="30" oryx:align="top center" stroke="black" stroke-width="0pt" letter-spacing="-0.01px" fill="#000000" text-anchor="middle" transform="rotate(0 14 30)" visibility="inherit" oryx:fontSize="11"><tspan x="14" y="30" dy="11">End</tspan></text>   </g></g><g class="children" style="overflow:hidden"/><g class="edge"/></g><g class="controls"><g class="dockers"/><g class="magnets" transform="translate(228, 104)"><g pointer-events="all" display="none" transform="translate(6, 6)"><circle cx="8" cy="8" r="4" stroke="none" fill="red" fill-opacity="0.3"/></g></g></g></g></g><g class="edge"><g id="_0533388E-D27F-4CC4-8AC7-E2D60C1D6B5C" bpmn2nodeid="25403b55-1bed-4f1e-baba-7e88872ef148-7b4e39c8-84bb-4bb9-9f96-1bcbae360a40"><g class="stencils"><g class="me"><g pointer-events="painted" bpmn2nodeid="_CA64616D-E344-4DBE-9CD8-75495B7A31F4"><path id="_0533388E-D27F-4CC4-8AC7-E2D60C1D6B5C_1" d="M64.34029575824488 119.27835797985374L116.34720424175512 123.61226702014626 " stroke="#000000" fill="none" stroke-width="2" stroke-linecap="round" stroke-linejoin="round" marker-start="url(#_0533388E-D27F-4CC4-8AC7-E2D60C1D6B5Cstart)" marker-end="url(#_0533388E-D27F-4CC4-8AC7-E2D60C1D6B5Cend)"/></g><text id="_0533388E-D27F-4CC4-8AC7-E2D60C1D6B5Ctext_name" font-size="12" x="78.34029575824488" y="105.27835797985374" oryx:edgePosition="startTop" stroke-width="0pt" letter-spacing="-0.01px" fill="#000000" text-anchor="start" transform="rotate(4.7636416907261605 64.34029575824488 119.27835797985374)" visibility="inherit" oryx:fontSize="12"/></g><g class="children" style="overflow:hidden"/><g class="edge"/></g><g class="controls"><g class="dockers"/><g class="magnets"/></g></g><g id="_F7FF9C99-5F26-4F6C-A67B-F9BC8A15869F" bpmn2nodeid="7b4e39c8-84bb-4bb9-9f96-1bcbae360a40-214dffd4-2c60-4483-9a34-bc0a28f2e9cf"><g class="stencils"><g class="me"><g pointer-events="painted" bpmn2nodeid="_BE95ECFB-6648-43B4-A204-E0D7D7A57291"><path id="_F7FF9C99-5F26-4F6C-A67B-F9BC8A15869F_1" d="M197.83819116065723 122.67595623004806L242 118 " stroke="#000000" fill="none" stroke-width="2" stroke-linecap="round" stroke-linejoin="round" marker-start="url(#_F7FF9C99-5F26-4F6C-A67B-F9BC8A15869Fstart)" marker-end="url(#_F7FF9C99-5F26-4F6C-A67B-F9BC8A15869Fend)"/></g><text id="_F7FF9C99-5F26-4F6C-A67B-F9BC8A15869Ftext_name" font-size="12" x="211.83819116065723" y="108.67595623004806" oryx:edgePosition="startTop" stroke-width="0pt" letter-spacing="-0.01px" fill="#000000" text-anchor="start" transform="rotate(353.9559078377589 197.83819116065723 122.67595623004806)" visibility="inherit" oryx:fontSize="12"/></g><g class="children" style="overflow:hidden"/><g class="edge"/></g><g class="controls"><g class="dockers"/><g class="magnets"/></g></g></g><text id="_307B055B-0AEF-4F28-9E94-E7AC92DFBE96" style="stroke-width:1;fill:rgb(177,194,214);font-family:arial;font-weight:bold" font-size="12" onclick="ORYX.Plugins.CanvasTitle.openTextualAnalysis()" onmouseover="ORYX.Plugins.CanvasTitle.addToolTip('_307B055B-0AEF-4F28-9E94-E7AC92DFBE96')" transform="translate(10, 20)">MI_MainSub_DetermineCoverageCode v.1.0 (MI_MainSub_DetermineCoverageCode)</text></g></g></svg>